{
  "source": "C:\\Users\\mbnyau\\Desktop\\stuff\\MIUN\\quantitative_research\\video_compression\\videos\\UVG\\Jockey_1920x1080_120fps_420_8bit_YUV.y4m",
  "output": "C:\\Users\\mbnyau\\Desktop\\stuff\\MIUN\\quantitative_research\\video_compression\\compressed_videos\\UVG\\h264\\3\\Jockey_1920x1080_120fps_420_8bit_YUV_h264.mp4",
  "codec": "h264",
  "ok": "[yuv4mpegpipe @ 0000022bdf426140] Stream #0: not enough frames to estimate rate; consider increasing probesize\nInput #0, yuv4mpegpipe, from 'C:\\Users\\mbnyau\\Desktop\\stuff\\MIUN\\quantitative_research\\video_compression\\videos\\UVG\\Jockey_1920x1080_120fps_420_8bit_YUV.y4m':\n  Duration: 00:00:05.00, start: 0.000000, bitrate: 2985989 kb/s\n  Stream #0:0: Video: rawvideo (I420 / 0x30323449), yuv420p(progressive), 1920x1080, 120 fps, 120 tbr, 120 tbn\n[out#0/mp4 @ 0000022bdf427a00] Codec AVOption b:a (set bitrate (in bits/s)) has not been used for any stream. The most likely reason is either wrong type (e.g. a video option with no video streams) or that it is a private option of some decoder which was not actually used for any stream.\nStream mapping:\n  Stream #0:0 -> #0:0 (rawvideo (native) -> h264 (libx264))\nPress [q] to stop, [?] for help\n[libx264 @ 0000022bdf42d580] using cpu capabilities: MMX2 SSE2Fast SSSE3 SSE4.2 AVX FMA3 BMI2 AVX2\n[libx264 @ 0000022bdf42d580] profile High, level 5.1, 4:2:0, 8-bit\n[libx264 @ 0000022bdf42d580] 264 - core 165 r3222 b35605a - H.264/MPEG-4 AVC codec - Copyleft 2003-2025 - http://www.videolan.org/x264.html - options: cabac=1 ref=5 deblock=1:0:0 analyse=0x3:0x113 me=hex subme=8 psy=1 psy_rd=1.00:0.00 mixed_ref=1 me_range=16 chroma_me=1 trellis=2 8x8dct=1 cqm=0 deadzone=21,11 fast_pskip=1 chroma_qp_offset=-2 threads=18 lookahead_threads=3 sliced_threads=0 nr=0 decimate=1 interlaced=0 bluray_compat=0 constrained_intra=0 bframes=3 b_pyramid=2 b_adapt=1 b_bias=0 direct=3 weightb=1 open_gop=0 weightp=2 keyint=250 keyint_min=25 scenecut=40 intra_refresh=0 rc_lookahead=50 rc=cbr mbtree=1 bitrate=3000 ratetol=1.0 qcomp=0.60 qpmin=0 qpmax=69 qpstep=4 vbv_maxrate=3000 vbv_bufsize=3000 nal_hrd=none filler=0 ip_ratio=1.40 aq=1:1.00\nOutput #0, mp4, to 'C:\\Users\\mbnyau\\Desktop\\stuff\\MIUN\\quantitative_research\\video_compression\\compressed_videos\\UVG\\h264\\3\\Jockey_1920x1080_120fps_420_8bit_YUV_h264.mp4':\n  Metadata:\n    encoder         : Lavf62.3.100\n  Stream #0:0: Video: h264 (avc1 / 0x31637661), yuv420p(tv, progressive), 1920x1080, q=2-31, 3000 kb/s, 120 fps, 15360 tbn\n    Metadata:\n      encoder         : Lavc62.11.100 libx264\n    Side data:\n      cpb: bitrate max/min/avg: 3000000/0/3000000 buffer size: 3000000 vbv_delay: N/A\nframe=    5 fps=0.0 q=49.0 size=       0KiB time=00:00:00.01 bitrate=  23.0kbits/s speed=0.0327x elapsed=0:00:00.51    \nframe=   61 fps= 58 q=41.0 size=       0KiB time=00:00:00.45 bitrate=   0.8kbits/s speed=0.436x elapsed=0:00:01.05    \nframe=  110 fps= 69 q=42.0 size=     256KiB time=00:00:00.90 bitrate=2330.6kbits/s speed=0.565x elapsed=0:00:01.59    \nframe=  163 fps= 77 q=42.0 size=     256KiB time=00:00:01.34 bitrate=1563.4kbits/s speed=0.636x elapsed=0:00:02.11    \nframe=  211 fps= 80 q=43.0 size=     512KiB time=00:00:01.74 bitrate=2408.4kbits/s speed=0.663x elapsed=0:00:02.62    \nframe=  228 fps= 73 q=40.0 size=     512KiB time=00:00:01.88 bitrate=2227.3kbits/s speed=0.602x elapsed=0:00:03.12    \nframe=  280 fps= 77 q=44.0 size=     768KiB time=00:00:02.31 bitrate=2715.9kbits/s speed=0.636x elapsed=0:00:03.64    \nframe=  326 fps= 78 q=51.0 size=    1024KiB time=00:00:02.70 bitrate=3107.0kbits/s speed=0.648x elapsed=0:00:04.16    \nframe=  373 fps= 80 q=48.0 size=    1024KiB time=00:00:03.09 bitrate=2713.4kbits/s speed=0.661x elapsed=0:00:04.67    \nframe=  404 fps= 78 q=47.0 size=    1280KiB time=00:00:03.34 bitrate=3138.0kbits/s speed=0.643x elapsed=0:00:05.19    \nframe=  430 fps= 75 q=47.0 size=    1280KiB time=00:00:03.56 bitrate=2940.0kbits/s speed=0.624x elapsed=0:00:05.71    \nframe=  456 fps= 73 q=46.0 size=    1280KiB time=00:00:03.78 bitrate=2771.7kbits/s speed=0.607x elapsed=0:00:06.22    \nframe=  481 fps= 71 q=45.0 size=    1280KiB time=00:00:03.99 bitrate=2627.0kbits/s speed=0.591x elapsed=0:00:06.74    \nframe=  507 fps= 70 q=44.0 size=    1280KiB time=00:00:04.20 bitrate=2491.8kbits/s speed=0.58x elapsed=0:00:07.25    \nframe=  575 fps= 74 q=42.0 size=    1536KiB time=00:00:04.76 bitrate=2639.9kbits/s speed=0.613x elapsed=0:00:07.77    \n[mp4 @ 0000022bdf427b00] Starting second pass: moving the moov atom to the beginning of the file\n[out#0/mp4 @ 0000022bdf427a00] video:1777KiB audio:0KiB subtitle:0KiB other streams:0KiB global headers:0KiB muxing overhead: 0.395646%\nframe=  600 fps= 76 q=-1.0 Lsize=    1784KiB time=00:00:04.98 bitrate=2932.6kbits/s speed=0.629x elapsed=0:00:07.91    \n[libx264 @ 0000022bdf42d580] frame I:7     Avg QP:41.49  size:  9209\n[libx264 @ 0000022bdf42d580] frame P:230   Avg QP:42.33  size:  3996\n[libx264 @ 0000022bdf42d580] frame B:363   Avg QP:44.79  size:  2301\n[libx264 @ 0000022bdf42d580] consecutive B-frames: 16.2%  5.7% 11.5% 66.7%\n[libx264 @ 0000022bdf42d580] mb I  I16..4: 43.1% 56.6%  0.4%\n[libx264 @ 0000022bdf42d580] mb P  I16..4:  7.7%  5.2%  0.0%  P16..4: 15.4%  0.6%  0.6%  0.0%  0.0%    skip:70.5%\n[libx264 @ 0000022bdf42d580] mb B  I16..4:  0.5%  0.3%  0.0%  B16..8: 24.4%  0.4%  0.0%  direct: 0.5%  skip:73.9%  L0:39.1% L1:60.7% BI: 0.2%\n[libx264 @ 0000022bdf42d580] 8x8 transform intra:43.0% inter:95.1%\n[libx264 @ 0000022bdf42d580] direct mvs  spatial:97.5% temporal:2.5%\n[libx264 @ 0000022bdf42d580] coded y,uvDC,uvAC intra: 2.8% 20.8% 1.0% inter: 0.3% 2.3% 0.0%\n[libx264 @ 0000022bdf42d580] i16 v,h,dc,p: 30% 42%  4% 24%\n[libx264 @ 0000022bdf42d580] i8 v,h,dc,ddl,ddr,vr,hd,vl,hu: 11% 15% 61%  2%  3%  2%  3%  2%  2%\n[libx264 @ 0000022bdf42d580] i4 v,h,dc,ddl,ddr,vr,hd,vl,hu: 20% 14% 21%  8% 11%  8%  8%  5%  7%\n[libx264 @ 0000022bdf42d580] i8c dc,h,v,p: 76% 19%  4%  2%\n[libx264 @ 0000022bdf42d580] Weighted P-Frames: Y:0.0% UV:0.0%\n[libx264 @ 0000022bdf42d580] ref P L0: 50.1%  7.5% 21.8%  8.7%  8.9%  3.0%\n[libx264 @ 0000022bdf42d580] ref B L0: 79.4% 12.9%  6.0%  1.7%\n[libx264 @ 0000022bdf42d580] ref B L1: 94.8%  5.2%\n[libx264 @ 0000022bdf42d580] kb/s:2910.07\n",
  "seconds": 7.985846042633057,
  "probe_out": {}
}